<?xml version="1.0" encoding="UTF-8" standalone="no"?>
<!-- Created with Inkscape (http://www.inkscape.org/) -->

<svg
   width="788.68066mm"
   height="225.39183mm"
   viewBox="0 0 788.68066 225.39183"
   version="1.1"
   id="svg1"
   xmlns:inkscape="http://www.inkscape.org/namespaces/inkscape"
   xmlns:sodipodi="http://sodipodi.sourceforge.net/DTD/sodipodi-0.dtd"
   xmlns="http://www.w3.org/2000/svg"
   xmlns:svg="http://www.w3.org/2000/svg">
  <sodipodi:namedview
     id="namedview1"
     pagecolor="#ffffff"
     bordercolor="#000000"
     borderopacity="0.25"
     inkscape:showpageshadow="2"
     inkscape:pageopacity="0.0"
     inkscape:pagecheckerboard="0"
     inkscape:deskcolor="#d1d1d1"
     inkscape:document-units="mm" />
  <defs
     id="defs1">
    <inkscape:path-effect
       effect="spiro"
       id="path-effect22"
       is_visible="true"
       lpeversion="1" />
    <inkscape:path-effect
       effect="spiro"
       id="path-effect21"
       is_visible="true"
       lpeversion="1" />
    <inkscape:path-effect
       effect="spiro"
       id="path-effect20"
       is_visible="true"
       lpeversion="1" />
    <inkscape:path-effect
       effect="spiro"
       id="path-effect19"
       is_visible="true"
       lpeversion="1" />
    <inkscape:path-effect
       effect="spiro"
       id="path-effect18"
       is_visible="true"
       lpeversion="1" />
    <inkscape:path-effect
       effect="spiro"
       id="path-effect9"
       is_visible="true"
       lpeversion="1" />
    <inkscape:path-effect
       effect="spiro"
       id="path-effect8"
       is_visible="true"
       lpeversion="1" />
    <inkscape:path-effect
       effect="spiro"
       id="path-effect7"
       is_visible="true"
       lpeversion="1" />
    <inkscape:path-effect
       effect="spiro"
       id="path-effect6"
       is_visible="true"
       lpeversion="1" />
    <rect
       x="1719.4899"
       y="266.81741"
       width="235.82346"
       height="292.42108"
       id="rect4" />
    <rect
       x="87.664101"
       y="-788.97693"
       width="2755.7019"
       height="720.37024"
       id="rect2" />
  </defs>
  <g
     inkscape:label="Layer 1"
     inkscape:groupmode="layer"
     id="layer1"
     transform="translate(12.254947,232.03362)">
    <rect
       style="fill:#000000;stroke:#000000;stroke-width:0.864587"
       id="rect1"
       width="787.8161"
       height="224.52724"
       x="-11.822653"
       y="-231.60133"
       rx="16.729076"
       ry="21.345604"
       inkscape:label="back" />
    <rect
       style="fill:#501616;stroke:#000000;stroke-width:0.80371"
       id="rect1-9"
       width="768.42963"
       height="198.91705"
       x="-2.2920284"
       y="-218.44112"
       rx="16.31741"
       ry="18.910866"
       inkscape:label="back" />
  </g>
  <g
     inkscape:groupmode="layer"
     id="layer2"
     inkscape:label="txt"
     transform="translate(12.254947,232.03362)">
    <text
       xml:space="preserve"
       transform="matrix(2.4566539,0,0,3.5820966,-3218.0665,2447.0739)"
       id="text1"
       style="font-size:53.3333px;line-height:2.7;font-family:'Sans Serif Collection';-inkscape-font-specification:'Sans Serif Collection';text-align:center;white-space:pre;shape-inside:url(#rect2);fill:#ffffff;stroke:#000000;stroke-width:1.00157"><tspan
         x="1344.6553"
         y="-701.65233"
         id="tspan1">MORGAN</tspan></text>
  </g>
  <g
     inkscape:groupmode="layer"
     id="layer3"
     inkscape:label="DUDE"
     transform="matrix(0.66650065,0,0,0.56638498,-203.78411,126.97618)">
    <ellipse
       style="fill:#ffd5d5;stroke:#000000;stroke-width:0.326865"
       id="path2"
       cx="379.7179"
       cy="111.24129"
       rx="36.692955"
       ry="37.0495" />
    <path
       sodipodi:type="star"
       style="fill:#ffffff;stroke:#000000;stroke-width:0.264999"
       id="path3"
       inkscape:flatsided="true"
       sodipodi:sides="3"
       sodipodi:cx="350.12485"
       sodipodi:cy="77.369743"
       sodipodi:r1="45.027534"
       sodipodi:r2="22.513767"
       sodipodi:arg1="0.14301687"
       sodipodi:arg2="1.1902144"
       inkscape:rounded="0"
       inkscape:randomized="0"
       d="m 394.69267,83.78751 -72.40968,28.97022 11.11589,-77.19374 z"
       inkscape:transform-center-x="-6.9223298"
       inkscape:transform-center-y="-4.0083742"
       transform="matrix(0.82773463,0,0,1.2491486,68.359559,-30.594819)" />
    <text
       xml:space="preserve"
       transform="matrix(0.45047511,-0.09376935,0.12070443,0.349952,-509.80006,114.75384)"
       id="text3"
       style="font-size:53.3333px;line-height:2.7;font-family:'Sans Serif Collection';-inkscape-font-specification:'Sans Serif Collection';text-align:center;white-space:pre;shape-inside:url(#rect4);fill:#000000;stroke:#000000;stroke-width:1.00157"><tspan
         x="1816.8545"
         y="354.14259"
         id="tspan2">D</tspan></text>
    <ellipse
       style="fill:#000000;stroke:#000000;stroke-width:0.275777"
       id="path4"
       cx="257.63156"
       cy="277.19403"
       rx="7.3037343"
       ry="10.334347"
       transform="rotate(-30)" />
    <ellipse
       style="fill:#000000;stroke:#000000;stroke-width:0.264999"
       id="path5"
       cx="287.71841"
       cy="278.92007"
       rx="11.765906"
       ry="3.2088835"
       transform="rotate(-30)" />
    <path
       style="fill:#000000;stroke:#000000;stroke-width:0.264999"
       d="m 360.64864,123.78783 c 0.25149,-0.0217 0.50485,-0.0217 0.75634,0 0.95695,0.0826 1.85526,0.47375 2.77326,0.75634 1.54412,0.47534 3.1809,0.64763 4.79015,0.50422"
       id="path6"
       inkscape:path-effect="#path-effect6"
       inkscape:original-d="m 360.64864,123.78783 c 0.25212,0 0.50549,-0.0251 0.75634,0 0.9502,0.095 1.85714,0.52731 2.77326,0.75634 1.58088,0.39522 3.1706,0.50422 4.79015,0.50422" />
    <path
       style="fill:#000000;stroke:#000000;stroke-width:0.264999"
       d="m 370.48109,122.65331 c 0.71774,-0.73078 1.13426,-1.74895 1.1345,-2.77325 7e-5,-0.29793 -0.0335,-0.59509 -0.0342,-0.89302 -7.5e-4,-0.29793 0.0332,-0.60231 0.16028,-0.87177 0.0401,-0.085 0.0891,-0.16572 0.12608,-0.25211 0.084,-0.19605 0.10303,-0.41465 0.0905,-0.62756 -0.0125,-0.21291 -0.0552,-0.42268 -0.0905,-0.63301 -0.0839,-0.49957 -0.12607,-1.00613 -0.12608,-1.51269"
       id="path7"
       inkscape:path-effect="#path-effect7"
       inkscape:original-d="m 370.48109,122.65331 c 0.47342,-0.89692 0.93133,-1.75736 1.1345,-2.77325 0.11044,-0.55216 0.0138,-1.20348 0.12605,-1.76479 0.0185,-0.0921 0.0964,-0.16298 0.12608,-0.25211 0.10877,-0.32633 0.0275,-0.93056 0,-1.26057 -0.047,-0.5638 -0.12608,-0.98053 -0.12608,-1.51269" />
    <path
       style="fill:#000000;stroke:#000000;stroke-width:0.264999"
       d="m 387.87694,103.49267 c 1.00171,0.17725 2.04185,0.13391 3.02535,-0.12605 0.46341,-0.12249 0.91503,-0.29246 1.38663,-0.37817 0.25154,-0.0457 0.50755,-0.0672 0.75634,-0.12606 0.50562,-0.11964 0.96465,-0.39026 1.37283,-0.71174 0.40819,-0.32148 0.77178,-0.69502 1.1483,-1.05306 0.39073,-0.37155 0.79922,-0.72941 1.26058,-1.00845 0.20972,-0.126842 0.42986,-0.237089 0.63027,-0.378171 0.39755,-0.279859 0.70902,-0.680305 0.88241,-1.134512"
       id="path8"
       inkscape:path-effect="#path-effect8"
       inkscape:original-d="m 387.87694,103.49267 c 1.01026,0.004 2.02192,-0.0424 3.02535,-0.12605 0.6541,-0.0545 0.72073,-0.2117 1.38663,-0.37817 0.24797,-0.062 0.51387,-0.0452 0.75634,-0.12606 0.96271,-0.32091 1.77585,-1.12597 2.52113,-1.7648 0.40857,-0.35019 0.82664,-0.69024 1.26058,-1.00845 0.19757,-0.144891 0.44588,-0.216831 0.63027,-0.378171 0.35062,-0.306787 0.5453,-0.797404 0.88241,-1.134512" />
    <path
       style="fill:#000000;stroke:#000000;stroke-width:0.264999"
       d="m 368.13024,125.14646 c 0.30598,0.0306 0.62068,-0.0323 0.89135,-0.17827 0.22588,-0.12179 0.41742,-0.29703 0.61158,-0.46483 0.19416,-0.16779 0.3976,-0.33239 0.63633,-0.42653 0.31,-0.12224 0.65576,-0.11662 0.97557,-0.21024 0.1599,-0.0468 0.31523,-0.12033 0.43486,-0.23631 0.0598,-0.058 0.11009,-0.12624 0.14449,-0.20212 0.0344,-0.0759 0.0527,-0.15944 0.0495,-0.24269 -0.002,-0.0602 -0.0156,-0.11943 -0.0216,-0.17938 -0.006,-0.06 -0.004,-0.1228 0.0216,-0.17716 0.0183,-0.0383 0.0476,-0.0702 0.0795,-0.0982 0.0318,-0.028 0.0666,-0.0526 0.0988,-0.0801 0.12119,-0.10342 0.20515,-0.24784 0.24286,-0.40264 0.0377,-0.15479 0.0301,-0.3193 -0.014,-0.4724 -0.0882,-0.3062 -0.31711,-0.55749 -0.5854,-0.7294 -0.11209,-0.0718 -0.23184,-0.13169 -0.35655,-0.17827"
       id="path9"
       inkscape:path-effect="#path-effect9"
       inkscape:original-d="m 368.13024,125.14646 c 0.21071,-0.58775 0.60391,-0.0825 0.89135,-0.17827 0.51811,-0.17271 0.83487,-0.58158 1.24791,-0.89136 0.36851,-0.27639 1.35546,-0.51788 1.60443,-0.89136 0.0659,-0.0989 -0.0376,-0.24379 0,-0.35654 0.0266,-0.0797 0.14071,-0.10311 0.17828,-0.17827 0.18502,-0.37006 -0.0987,-1.34661 -0.35653,-1.60444 -0.19052,-0.19051 -0.35655,0.25342 -0.35655,-0.17827" />
    <ellipse
       style="fill:#000000;stroke:#000000;stroke-width:0.518903"
       id="path10"
       cx="264.87573"
       cy="293.82651"
       rx="18.353718"
       ry="4.6475167"
       transform="matrix(0.88435389,-0.46681709,0.53393186,0.84552751,0,0)" />
  </g>
  <g
     inkscape:groupmode="layer"
     id="layer4"
     inkscape:label="ZOMBIE"
     transform="translate(12.254947,232.03362)">
    <ellipse
       style="fill:#2b0000;stroke:#000000;stroke-width:0.11697"
       id="path11"
       cx="743.0863"
       cy="-50.926968"
       rx="28.455616"
       ry="35.874157" />
    <ellipse
       style="fill:#000000;stroke:#000000;stroke-width:0.11697"
       id="path12"
       cx="719.63263"
       cy="-60.396854"
       rx="7.2250586"
       ry="7.6873198" />
    <ellipse
       style="fill:#000000;stroke:#000000;stroke-width:0.11697"
       id="path13"
       cx="752.97913"
       cy="-61.065319"
       rx="7.0027499"
       ry="8.801425" />
    <ellipse
       style="fill:#800000;stroke:#000000;stroke-width:0.11697"
       id="path14"
       cx="713.12805"
       cy="-60.252811"
       rx="1.1115476"
       ry="1.0026938" />
    <ellipse
       style="fill:#800000;stroke:#000000;stroke-width:0.11697"
       id="path15"
       cx="746.4071"
       cy="-61.027103"
       rx="0.889238"
       ry="2.1167984" />
    <ellipse
       style="fill:#800000;stroke:#000000;stroke-width:0.11697"
       id="path16"
       cx="766.76227"
       cy="-45.802094"
       rx="1.0003928"
       ry="8.6900139" />
    <ellipse
       style="fill:#4d4d4d;stroke:#000000;stroke-width:0.112107"
       id="path17"
       cx="727.30231"
       cy="-36.666443"
       rx="12.451759"
       ry="8.2468061" />
    <ellipse
       style="fill:#808080;stroke:#000000;stroke-width:0.0806792"
       id="path17-3"
       cx="724.59491"
       cy="-36.348598"
       rx="11.059429"
       ry="4.808815" />
    <rect
       style="fill:#808000;stroke:#000000;stroke-width:0.121533"
       id="rect17"
       width="22.946142"
       height="2.8314793"
       x="713.13843"
       y="38.355743"
       rx="2.1944544"
       ry="2.8314793"
       transform="scale(1,-1)" />
    <rect
       style="fill:#808000;stroke:#000000;stroke-width:0.122745"
       id="rect17-4"
       width="23.416519"
       height="2.8302648"
       x="712.96594"
       y="31.3953"
       rx="2.2394388"
       ry="2.8302648"
       transform="scale(1,-1)" />
    <path
       style="fill:#a02c2c;stroke:#000000;stroke-width:0.264999"
       d="m 731.09062,-75.052221 c -0.17582,-0.07357 -0.37252,-0.09641 -0.56052,-0.06507 -0.18799,0.03133 -0.36666,0.116731 -0.50911,0.243345 -0.22264,0.197884 -0.34726,0.481666 -0.5348,0.713087 -0.32367,0.39941 -0.81164,0.619397 -1.24791,0.891357 -1.35975,0.847647 -2.30382,2.331185 -2.49578,3.921966"
       id="path18"
       inkscape:path-effect="#path-effect18"
       inkscape:original-d="m 731.09062,-75.052221 c -0.35655,0.05943 -0.75363,0.0027 -1.06963,0.178271 -0.25971,0.144296 -0.31395,0.514324 -0.5348,0.713087 -0.37997,0.341963 -0.87566,0.541009 -1.24791,0.891357 -1.59451,1.500714 -2.03424,2.075826 -2.49578,3.921966" />
    <path
       style="fill:#a02c2c;stroke:#000000;stroke-width:0.264999"
       d="m 731.62545,-25.136254 c 0.36332,0.949571 1.04123,1.775727 1.9016,2.317442 0.86037,0.541716 1.89837,0.795957 2.9117,0.71317 0.17844,-0.01458 0.36011,-0.03907 0.53483,0 0.19609,0.04385 0.36515,0.163555 0.53059,0.277599 0.16543,0.114044 0.34025,0.227935 0.53904,0.257215 0.11777,0.01735 0.23755,0.0039 0.35653,0 0.41647,-0.01349 0.83617,0.09479 1.19413,0.308095 0.35796,0.213301 0.65295,0.530878 0.8393,0.903578 0.18636,0.3727 0.26343,0.799234 0.2193,1.213584 -0.0441,0.414349 -0.20932,0.81508 -0.46999,1.140169"
       id="path19"
       inkscape:path-effect="#path-effect19"
       inkscape:original-d="m 731.62545,-25.136254 c 1.95578,0.459688 3.21932,1.967955 4.8133,3.030612 0.14836,0.09889 0.36571,-0.05637 0.53483,0 0.37817,0.126057 0.68289,0.438133 1.06963,0.534814 0.11531,0.02882 0.24379,-0.03758 0.35653,0 0.60732,0.202437 1.78274,3.007042 1.78274,3.565426" />
    <path
       style="fill:#a02c2c;stroke:#000000;stroke-width:0.264999"
       d="m 751.59184,-43.319927 c 1.24914,0.682884 2.31576,1.696087 3.06188,2.908522 0.74611,1.212435 1.16993,2.62121 1.21662,4.044059 0.0136,0.415771 -0.004,0.831926 0,1.247899 0.007,0.716009 0.0802,1.429963 0.17827,2.139257 0.11288,0.816067 0.25959,1.631801 0.25831,2.455637 -0.001,0.823835 -0.16147,1.66983 -0.61486,2.357686 -0.30181,0.457893 -0.71917,0.826076 -1.06963,1.2479 -0.51398,0.618645 -0.88309,1.356882 -1.06961,2.139255"
       id="path20"
       inkscape:path-effect="#path-effect20"
       inkscape:original-d="m 751.59184,-43.319927 c 1.78734,2.123019 3.61749,4.176324 4.2785,6.952581 0.0964,0.404653 -0.022,0.832508 0,1.247899 0.0376,0.714568 0.11348,1.426636 0.17827,2.139257 0.14618,1.60801 0.34089,3.278997 -0.35655,4.813323 -0.57296,1.260507 -0.42069,0.20963 -1.06963,1.2479 -0.43146,0.690338 -0.46255,1.532177 -1.06961,2.139255" />
    <path
       style="fill:#a02c2c;stroke:#000000;stroke-width:0.264999"
       d="m 747.49159,-78.617645 c 2.32034,-1.110468 5.11683,-1.177052 7.48739,-0.178274 0.69706,0.293691 1.38355,0.680707 2.13926,0.713087 0.23755,0.01018 0.47582,-0.01552 0.71308,0 0.24581,0.01608 0.48863,0.07678 0.71308,0.178271"
       id="path21"
       inkscape:path-effect="#path-effect21"
       inkscape:original-d="m 747.49159,-78.617645 c 2.42927,-0.655063 5.01518,-0.727652 7.48739,-0.178274 0.72869,0.161933 1.50273,0.394825 2.13926,0.713087 0.15584,0.07792 0.56253,-0.03764 0.71308,0 0.9257,0.23142 -0.19031,0.178271 0.71308,0.178271" />
    <path
       style="fill:#a02c2c;stroke:#000000;stroke-width:0.264999"
       d="m 724.31631,-49.915966 -5.88295,2.852341"
       id="path22"
       inkscape:path-effect="#path-effect22"
       inkscape:original-d="m 724.31631,-49.915966 c -1.06518,1.121077 -4.44354,2.852341 -5.88295,2.852341" />
  </g>
</svg>
